<svg xmlns="http://www.w3.org/2000/svg" xmlns:xlink="http://www.w3.org/1999/xlink" width="200" zoomAndPan="magnify" viewBox="0 0 150 44.999999" height="60" preserveAspectRatio="xMidYMid meet" version="1.0"><defs><g/><clipPath id="07c1357178"><rect x="0" width="118" y="0" height="45"/></clipPath></defs><g transform="matrix(1, 0, 0, 1, 16, 0)"><g clip-path="url(#07c1357178)"><g fill="#7f82e8" fill-opacity="1"><g transform="translate(1.010698, 37.529561)"><g><path d="M 18.296875 0 L 18.296875 -2.609375 C 15.847656 -0.367188 13.226562 0.75 10.4375 0.75 C 7.664062 0.75 5.566406 0.0195312 4.140625 -1.4375 C 2.722656 -2.90625 2.015625 -4.78125 2.015625 -7.0625 C 2.015625 -8.851562 2.375 -10.332031 3.09375 -11.5 C 3.820312 -12.664062 4.898438 -13.578125 6.328125 -14.234375 C 7.765625 -14.898438 9.820312 -15.367188 12.5 -15.640625 L 17.796875 -16.140625 L 17.796875 -17.265625 C 17.796875 -18.671875 17.367188 -19.632812 16.515625 -20.15625 C 15.671875 -20.675781 14.4375 -20.9375 12.8125 -20.9375 C 11.46875 -20.9375 10.3125 -20.710938 9.34375 -20.265625 C 8.382812 -19.816406 7.671875 -19.175781 7.203125 -18.34375 L 2.390625 -21.4375 C 3.242188 -22.851562 4.570312 -23.941406 6.375 -24.703125 C 8.175781 -25.460938 10.351562 -25.84375 12.90625 -25.84375 C 16.820312 -25.84375 19.644531 -25.160156 21.375 -23.796875 C 23.101562 -22.429688 23.96875 -20.191406 23.96875 -17.078125 L 23.96875 0 Z M 17.796875 -11.65625 L 14.65625 -11.375 C 12.4375 -11.1875 10.832031 -10.765625 9.84375 -10.109375 C 8.863281 -9.453125 8.375 -8.46875 8.375 -7.15625 C 8.375 -6.007812 8.691406 -5.222656 9.328125 -4.796875 C 9.972656 -4.378906 10.820312 -4.171875 11.875 -4.171875 C 12.625 -4.171875 13.535156 -4.40625 14.609375 -4.875 C 15.691406 -5.34375 16.753906 -6.007812 17.796875 -6.875 Z M 17.796875 -11.65625 "/></g></g></g><g fill="#7f82e8" fill-opacity="1"><g transform="translate(28.281216, 37.529561)"><g><path d="M 22.65625 -7.15625 C 22.65625 -5.5 22.234375 -4.078125 21.390625 -2.890625 C 20.554688 -1.710938 19.367188 -0.8125 17.828125 -0.1875 C 16.285156 0.4375 14.523438 0.75 12.546875 0.75 C 7.296875 0.75 3.71875 -0.710938 1.8125 -3.640625 L 6.421875 -6.875 C 7.171875 -5.851562 8.035156 -5.171875 9.015625 -4.828125 C 9.992188 -4.484375 11.046875 -4.3125 12.171875 -4.3125 C 15.109375 -4.3125 16.578125 -5.164062 16.578125 -6.875 C 16.578125 -7.625 16.160156 -8.203125 15.328125 -8.609375 C 14.492188 -9.015625 13.191406 -9.429688 11.421875 -9.859375 C 8.085938 -10.597656 5.738281 -11.632812 4.375 -12.96875 C 3.019531 -14.3125 2.34375 -16.054688 2.34375 -18.203125 C 2.34375 -20.421875 3.191406 -22.25 4.890625 -23.6875 C 6.597656 -25.125 9.101562 -25.84375 12.40625 -25.84375 C 14.65625 -25.84375 16.640625 -25.484375 18.359375 -24.765625 C 20.078125 -24.046875 21.394531 -22.96875 22.3125 -21.53125 L 17.703125 -18.25 C 16.597656 -19.9375 14.800781 -20.78125 12.3125 -20.78125 C 11.03125 -20.78125 10.0625 -20.5625 9.40625 -20.125 C 8.757812 -19.6875 8.4375 -19.125 8.4375 -18.4375 C 8.4375 -17.78125 8.726562 -17.253906 9.3125 -16.859375 C 9.90625 -16.472656 11.070312 -16.066406 12.8125 -15.640625 C 15.664062 -14.929688 17.703125 -14.226562 18.921875 -13.53125 C 20.148438 -12.84375 21.078125 -11.984375 21.703125 -10.953125 C 22.335938 -9.921875 22.65625 -8.65625 22.65625 -7.15625 Z M 22.65625 -7.15625 "/></g></g></g><g fill="#7f82e8" fill-opacity="1"><g transform="translate(52.367257, 37.529561)"><g><path d="M 17.359375 0 C 15.703125 0.5 13.957031 0.75 12.125 0.75 C 9.21875 0.75 7.125 0.09375 5.84375 -1.21875 C 4.5625 -2.53125 3.921875 -4.65625 3.921875 -7.59375 L 3.921875 -20.21875 L 0.75 -20.21875 L 0.75 -25.125 L 3.921875 -25.125 L 3.921875 -32.109375 L 10.109375 -32.109375 L 10.109375 -25.125 L 15.953125 -25.125 L 15.953125 -20.21875 L 10.109375 -20.21875 L 10.109375 -8.375 C 10.109375 -6.8125 10.347656 -5.75 10.828125 -5.1875 C 11.316406 -4.632812 12.007812 -4.359375 12.90625 -4.359375 C 14.039062 -4.359375 15.164062 -4.585938 16.28125 -5.046875 Z M 17.359375 0 "/></g></g></g><g fill="#7f82e8" fill-opacity="1"><g transform="translate(70.060774, 37.529561)"><g><path d="M 18.625 -19.09375 C 17.988281 -19.40625 17.144531 -19.5625 16.09375 -19.5625 C 14.945312 -19.5625 13.859375 -19.285156 12.828125 -18.734375 C 11.796875 -18.179688 10.738281 -17.378906 9.65625 -16.328125 L 9.65625 0 L 3.46875 0 L 3.46875 -25.125 L 9.65625 -25.125 L 9.65625 -21.53125 C 10.707031 -22.675781 11.835938 -23.625 13.046875 -24.375 C 14.265625 -25.125 15.625 -25.5 17.125 -25.5 C 18.40625 -25.5 19.316406 -25.332031 19.859375 -25 Z M 18.625 -19.09375 "/></g></g></g><g fill="#7f82e8" fill-opacity="1"><g transform="translate(89.69351, 37.529561)"><g><path d="M 18.296875 0 L 18.296875 -2.609375 C 15.847656 -0.367188 13.226562 0.75 10.4375 0.75 C 7.664062 0.75 5.566406 0.0195312 4.140625 -1.4375 C 2.722656 -2.90625 2.015625 -4.78125 2.015625 -7.0625 C 2.015625 -8.851562 2.375 -10.332031 3.09375 -11.5 C 3.820312 -12.664062 4.898438 -13.578125 6.328125 -14.234375 C 7.765625 -14.898438 9.820312 -15.367188 12.5 -15.640625 L 17.796875 -16.140625 L 17.796875 -17.265625 C 17.796875 -18.671875 17.367188 -19.632812 16.515625 -20.15625 C 15.671875 -20.675781 14.4375 -20.9375 12.8125 -20.9375 C 11.46875 -20.9375 10.3125 -20.710938 9.34375 -20.265625 C 8.382812 -19.816406 7.671875 -19.175781 7.203125 -18.34375 L 2.390625 -21.4375 C 3.242188 -22.851562 4.570312 -23.941406 6.375 -24.703125 C 8.175781 -25.460938 10.351562 -25.84375 12.90625 -25.84375 C 16.820312 -25.84375 19.644531 -25.160156 21.375 -23.796875 C 23.101562 -22.429688 23.96875 -20.191406 23.96875 -17.078125 L 23.96875 0 Z M 17.796875 -11.65625 L 14.65625 -11.375 C 12.4375 -11.1875 10.832031 -10.765625 9.84375 -10.109375 C 8.863281 -9.453125 8.375 -8.46875 8.375 -7.15625 C 8.375 -6.007812 8.691406 -5.222656 9.328125 -4.796875 C 9.972656 -4.378906 10.820312 -4.171875 11.875 -4.171875 C 12.625 -4.171875 13.535156 -4.40625 14.609375 -4.875 C 15.691406 -5.34375 16.753906 -6.007812 17.796875 -6.875 Z M 17.796875 -11.65625 "/></g></g></g></g></g></svg>