<svg xmlns="http://www.w3.org/2000/svg" xmlns:xlink="http://www.w3.org/1999/xlink" width="200" zoomAndPan="magnify" viewBox="0 0 150 44.999999" height="60" preserveAspectRatio="xMidYMid meet" version="1.0"><defs><g/><clipPath id="8b6b47909b"><rect x="0" width="18" y="0" height="45"/></clipPath><clipPath id="56b8f3a7d7"><rect x="0" width="19" y="0" height="45"/></clipPath></defs><g fill="#7f82e8" fill-opacity="1"><g transform="translate(29.301804, 31.473688)"><g><path d="M 14.28125 0 L 14.28125 -2.03125 C 12.375 -0.289062 10.332031 0.578125 8.15625 0.578125 C 5.988281 0.578125 4.347656 0.0078125 3.234375 -1.125 C 2.128906 -2.269531 1.578125 -3.734375 1.578125 -5.515625 C 1.578125 -6.910156 1.859375 -8.0625 2.421875 -8.96875 C 2.984375 -9.882812 3.820312 -10.597656 4.9375 -11.109375 C 6.0625 -11.628906 7.671875 -11.992188 9.765625 -12.203125 L 13.890625 -12.609375 L 13.890625 -13.484375 C 13.890625 -14.578125 13.554688 -15.328125 12.890625 -15.734375 C 12.234375 -16.140625 11.269531 -16.34375 10 -16.34375 C 8.957031 -16.34375 8.054688 -16.164062 7.296875 -15.8125 C 6.546875 -15.46875 5.988281 -14.972656 5.625 -14.328125 L 1.875 -16.734375 C 2.53125 -17.847656 3.5625 -18.695312 4.96875 -19.28125 C 6.382812 -19.875 8.085938 -20.171875 10.078125 -20.171875 C 13.128906 -20.171875 15.332031 -19.640625 16.6875 -18.578125 C 18.039062 -17.515625 18.71875 -15.765625 18.71875 -13.328125 L 18.71875 0 Z M 13.890625 -9.109375 L 11.4375 -8.875 C 9.707031 -8.726562 8.457031 -8.398438 7.6875 -7.890625 C 6.925781 -7.378906 6.546875 -6.613281 6.546875 -5.59375 C 6.546875 -4.695312 6.796875 -4.082031 7.296875 -3.75 C 7.796875 -3.414062 8.457031 -3.25 9.28125 -3.25 C 9.863281 -3.25 10.570312 -3.429688 11.40625 -3.796875 C 12.25 -4.171875 13.078125 -4.691406 13.890625 -5.359375 Z M 13.890625 -9.109375 "/></g></g></g><g fill="#7f82e8" fill-opacity="1"><g transform="translate(50.594188, 31.473688)"><g><path d="M 17.6875 -5.59375 C 17.6875 -4.289062 17.359375 -3.175781 16.703125 -2.25 C 16.046875 -1.332031 15.117188 -0.628906 13.921875 -0.140625 C 12.722656 0.335938 11.347656 0.578125 9.796875 0.578125 C 5.691406 0.578125 2.898438 -0.5625 1.421875 -2.84375 L 5.015625 -5.359375 C 5.597656 -4.566406 6.269531 -4.035156 7.03125 -3.765625 C 7.800781 -3.492188 8.625 -3.359375 9.5 -3.359375 C 11.789062 -3.359375 12.9375 -4.023438 12.9375 -5.359375 C 12.9375 -5.953125 12.613281 -6.40625 11.96875 -6.71875 C 11.320312 -7.039062 10.304688 -7.367188 8.921875 -7.703125 C 6.316406 -8.273438 4.484375 -9.082031 3.421875 -10.125 C 2.359375 -11.175781 1.828125 -12.539062 1.828125 -14.21875 C 1.828125 -15.945312 2.488281 -17.367188 3.8125 -18.484375 C 5.144531 -19.609375 7.101562 -20.171875 9.6875 -20.171875 C 11.445312 -20.171875 12.992188 -19.890625 14.328125 -19.328125 C 15.671875 -18.773438 16.703125 -17.9375 17.421875 -16.8125 L 13.8125 -14.25 C 12.957031 -15.570312 11.554688 -16.234375 9.609375 -16.234375 C 8.609375 -16.234375 7.851562 -16.0625 7.34375 -15.71875 C 6.832031 -15.375 6.578125 -14.9375 6.578125 -14.40625 C 6.578125 -13.882812 6.804688 -13.472656 7.265625 -13.171875 C 7.734375 -12.867188 8.644531 -12.546875 10 -12.203125 C 12.226562 -11.660156 13.820312 -11.117188 14.78125 -10.578125 C 15.738281 -10.035156 16.460938 -9.359375 16.953125 -8.546875 C 17.441406 -7.742188 17.6875 -6.757812 17.6875 -5.59375 Z M 17.6875 -5.59375 "/></g></g></g><g fill="#7f82e8" fill-opacity="1"><g transform="translate(69.400182, 31.473688)"><g><path d="M 13.5625 0 C 12.257812 0.382812 10.894531 0.578125 9.46875 0.578125 C 7.195312 0.578125 5.5625 0.0664062 4.5625 -0.953125 C 3.5625 -1.972656 3.0625 -3.628906 3.0625 -5.921875 L 3.0625 -15.78125 L 0.578125 -15.78125 L 0.578125 -19.609375 L 3.0625 -19.609375 L 3.0625 -25.078125 L 7.890625 -25.078125 L 7.890625 -19.609375 L 12.453125 -19.609375 L 12.453125 -15.78125 L 7.890625 -15.78125 L 7.890625 -6.546875 C 7.890625 -5.328125 8.078125 -4.5 8.453125 -4.0625 C 8.835938 -3.625 9.378906 -3.40625 10.078125 -3.40625 C 10.960938 -3.40625 11.84375 -3.585938 12.71875 -3.953125 Z M 13.5625 0 "/></g></g></g><g fill="#7f82e8" fill-opacity="1"><g transform="translate(83.214997, 31.473688)"><g><path d="M 14.546875 -14.90625 C 14.046875 -15.15625 13.382812 -15.28125 12.5625 -15.28125 C 11.664062 -15.28125 10.816406 -15.0625 10.015625 -14.625 C 9.210938 -14.195312 8.382812 -13.570312 7.53125 -12.75 L 7.53125 0 L 2.71875 0 L 2.71875 -19.609375 L 7.53125 -19.609375 L 7.53125 -16.8125 C 8.351562 -17.707031 9.238281 -18.445312 10.1875 -19.03125 C 11.132812 -19.625 12.195312 -19.921875 13.375 -19.921875 C 14.363281 -19.921875 15.070312 -19.785156 15.5 -19.515625 Z M 14.546875 -14.90625 "/></g></g></g><g fill="#7f82e8" fill-opacity="1"><g transform="translate(98.543922, 31.473688)"><g><path d="M 14.28125 0 L 14.28125 -2.03125 C 12.375 -0.289062 10.332031 0.578125 8.15625 0.578125 C 5.988281 0.578125 4.347656 0.0078125 3.234375 -1.125 C 2.128906 -2.269531 1.578125 -3.734375 1.578125 -5.515625 C 1.578125 -6.910156 1.859375 -8.0625 2.421875 -8.96875 C 2.984375 -9.882812 3.820312 -10.597656 4.9375 -11.109375 C 6.0625 -11.628906 7.671875 -11.992188 9.765625 -12.203125 L 13.890625 -12.609375 L 13.890625 -13.484375 C 13.890625 -14.578125 13.554688 -15.328125 12.890625 -15.734375 C 12.234375 -16.140625 11.269531 -16.34375 10 -16.34375 C 8.957031 -16.34375 8.054688 -16.164062 7.296875 -15.8125 C 6.546875 -15.46875 5.988281 -14.972656 5.625 -14.328125 L 1.875 -16.734375 C 2.53125 -17.847656 3.5625 -18.695312 4.96875 -19.28125 C 6.382812 -19.875 8.085938 -20.171875 10.078125 -20.171875 C 13.128906 -20.171875 15.332031 -19.640625 16.6875 -18.578125 C 18.039062 -17.515625 18.71875 -15.765625 18.71875 -13.328125 L 18.71875 0 Z M 13.890625 -9.109375 L 11.4375 -8.875 C 9.707031 -8.726562 8.457031 -8.398438 7.6875 -7.890625 C 6.925781 -7.378906 6.546875 -6.613281 6.546875 -5.59375 C 6.546875 -4.695312 6.796875 -4.082031 7.296875 -3.75 C 7.796875 -3.414062 8.457031 -3.25 9.28125 -3.25 C 9.863281 -3.25 10.570312 -3.429688 11.40625 -3.796875 C 12.25 -4.171875 13.078125 -4.691406 13.890625 -5.359375 Z M 13.890625 -9.109375 "/></g></g></g><g transform="matrix(1, 0, 0, 1, 10, 0)"><g clip-path="url(#8b6b47909b)"><g fill="#7f82e8" fill-opacity="1"><g transform="translate(0.825113, 37.352735)"><g><path d="M 1.6875 -12.859375 L 1.6875 -16.515625 L 4.75 -16.515625 L 4.75 -21.015625 C 4.75 -23.765625 5.46875 -25.851562 6.90625 -27.28125 C 8.351562 -28.707031 10.4375 -29.421875 13.15625 -29.421875 L 14.5 -29.421875 L 14.5 -25.34375 L 9.625 -25.34375 L 9.625 -18.375 C 9.625 -17.25 9.359375 -16.398438 8.828125 -15.828125 C 8.296875 -15.253906 7.679688 -14.96875 6.984375 -14.96875 L 6.984375 -14.421875 C 7.648438 -14.421875 8.253906 -14.128906 8.796875 -13.546875 C 9.347656 -12.972656 9.625 -12.128906 9.625 -11.015625 L 9.625 -4.203125 L 14.5 -4.203125 L 14.5 0 L 13.15625 0 C 10.4375 0 8.351562 -0.71875 6.90625 -2.15625 C 5.46875 -3.601562 4.75 -5.6875 4.75 -8.40625 L 4.75 -12.859375 Z M 1.6875 -12.859375 "/></g></g></g></g></g><g transform="matrix(1, 0, 0, 1, 121, 0)"><g clip-path="url(#56b8f3a7d7)"><g fill="#7f82e8" fill-opacity="1"><g transform="translate(1.151073, 37.572071)"><g><path d="M 14.921875 -12.859375 L 11.859375 -12.859375 L 11.859375 -8.40625 C 11.859375 -5.6875 11.140625 -3.601562 9.703125 -2.15625 C 8.273438 -0.71875 6.191406 0 3.453125 0 L 2.109375 0 L 2.109375 -4.203125 L 6.984375 -4.203125 L 6.984375 -11.015625 C 6.984375 -12.128906 7.253906 -12.972656 7.796875 -13.546875 C 8.335938 -14.128906 8.945312 -14.421875 9.625 -14.421875 L 9.625 -14.96875 C 8.925781 -14.96875 8.3125 -15.253906 7.78125 -15.828125 C 7.25 -16.398438 6.984375 -17.25 6.984375 -18.375 L 6.984375 -25.34375 L 2.109375 -25.34375 L 2.109375 -29.421875 L 3.453125 -29.421875 C 6.191406 -29.421875 8.273438 -28.707031 9.703125 -27.28125 C 11.140625 -25.851562 11.859375 -23.765625 11.859375 -21.015625 L 11.859375 -16.515625 L 14.921875 -16.515625 Z M 14.921875 -12.859375 "/></g></g></g></g></g></svg>